# xmcd
#
# Track frame offsets:
#  150
#  22813
#  46785
#  68983
#  84173
#  103285
#  121600
#  142460
#  165790
#  183543
#
# Disc length: 2769 seconds
#
# Revision: 3
# Processed by: cddbd v1.5.2PL0 Copyright (c) Steve Scherf et al.
# Submitted via: Collectorz.com_Music_Collector 6.11
#
DISCID=7a0acf0a
DTITLE=John Mayall - Memories
DYEAR=1971
DGENRE=Blues
TTITLE0=Memories
TTITLE1=Wish I Knew A Woman
TTITLE2=The City
TTITLE3=Home In A Tree
TTITLE4=Separate Ways
TTITLE5=The Fighting Line
TTITLE6=Grandad
TTITLE7=Back From Korea
TTITLE8=Nobody Cares
TTITLE9=Play The Harp
EXTD=
EXTT0=
EXTT1=
EXTT2=
EXTT3=
EXTT4=
EXTT5=
EXTT6=
EXTT7=
EXTT8=
EXTT9=
PLAYORDER=
